<svg xmlns="http://www.w3.org/2000/svg" viewBox="0 0 64 64" width="64" height="64">
<defs><linearGradient id="l0s1" gradientUnits="userSpaceOnUse" x1="-64" y1="0" x2="64" y2="0" gradientTransform="matrix(0.070496082 0.32579613 -0.66720963 0.14437103 50.331299 39.682373)"><stop offset="0" stop-color="#9be2ff"/><stop offset="1" stop-color="#5a6e82"/></linearGradient><linearGradient id="l0s2" gradientUnits="userSpaceOnUse" x1="-64" y1="0" x2="64" y2="0" gradientTransform="matrix(0.0011604354 0.33333397 -0.68264771 0.0023764819 59.626465 34.167969)"><stop offset="0" stop-color="#ffffff"/><stop offset="1" stop-color="#8e8e8e"/></linearGradient><linearGradient id="l0s3" gradientUnits="userSpaceOnUse" x1="-64" y1="0" x2="64" y2="0" gradientTransform="matrix(0.0010489523 0.3013134 -0.68264771 0.0023764819 58.984131 27.938843)"><stop offset="0" stop-color="#82aac8"/><stop offset="1" stop-color="#40407c"/></linearGradient><linearGradient id="l0s5" gradientUnits="userSpaceOnUse" x1="-64" y1="0" x2="64" y2="0" gradientTransform="matrix(0.18059158 0.30950165 -0.58961868 0.34403801 52.166992 15.160217)"><stop offset="0" stop-color="#9a9a9a"/><stop offset="1" stop-color="#505050"/></linearGradient><linearGradient id="l1s2" gradientUnits="userSpaceOnUse" x1="-64" y1="0" x2="64" y2="0" gradientTransform="matrix(-0.043999672 0.16633797 -0.30210876 -0.079913616 53.093506 50.728516)"><stop offset="0" stop-color="#999999"/><stop offset="0.9961" stop-color="#6c6c6c"/></linearGradient><linearGradient id="l1s3" gradientUnits="userSpaceOnUse" x1="-64" y1="0" x2="64" y2="0" gradientTransform="matrix(0.15288067 0.14924049 -0.17463398 0.17889309 23.666138 42.518066)"><stop offset="0" stop-color="#cccccc"/><stop offset="1" stop-color="#a5a5a5"/></linearGradient><linearGradient id="l1s4" gradientUnits="userSpaceOnUse" x1="-64" y1="0" x2="64" y2="0" gradientTransform="matrix(0.080622673 0.16928101 -0.33856201 0.16124535 38.253906 30.423096)"><stop offset="0" stop-color="#e5e5e5"/><stop offset="1" stop-color="#cbcbcb"/></linearGradient><radialGradient id="l1s6" gradientUnits="userSpaceOnUse" cx="0" cy="0" r="64" gradientTransform="matrix(0.21889496 -0.12076807 0.12076807 0.21889496 23.130737 9.8599243)"><stop offset="0" stop-color="#e4e4e4"/><stop offset="1" stop-color="#212121"/></radialGradient><radialGradient id="l1s7" gradientUnits="userSpaceOnUse" cx="0" cy="0" r="64" gradientTransform="matrix(0.055352449 0.02902329 -0.02902329 0.055352449 36.188232 26.296265)" data-hvif-gradient="conic"><stop offset="0" stop-color="#010000"/><stop offset="0.4627" stop-color="#6c6c6c"/><stop offset="0.9961" stop-color="#010101"/></radialGradient><linearGradient id="l1s8" gradientUnits="userSpaceOnUse" x1="-64" y1="0" x2="64" y2="0" gradientTransform="matrix(0.15637398 -0.0013127998 0.0010493621 0.12499523 29.966553 10.033691)"><stop offset="0.0039" stop-color="#bebebe"/><stop offset="1" stop-color="#0b0b0b"/></linearGradient><radialGradient id="l1s9" gradientUnits="userSpaceOnUse" cx="0" cy="0" r="64" gradientTransform="matrix(0.0625 0 0 0.234375 26 25.5)"><stop offset="0" stop-color="#ffffff"/><stop offset="0.7843" stop-color="#868686"/><stop offset="1" stop-color="#414141"/></radialGradient><radialGradient id="l1s10" gradientUnits="userSpaceOnUse" cx="0" cy="0" r="64" gradientTransform="matrix(0.20691395 0 0 0.20691395 26.99939 9.9994507)"><stop offset="0" stop-color="#ffffff"/><stop offset="0.498" stop-color="#ff3300"/><stop offset="1" stop-color="#cc0000"/></radialGradient><linearGradient id="l1s11" gradientUnits="userSpaceOnUse" x1="-64" y1="0" x2="64" y2="0" gradientTransform="matrix(0.0625 0 0 0.0625 50 36)"><stop offset="0" stop-color="#ff5959"/><stop offset="0.6" stop-color="#b30404"/><stop offset="1" stop-color="#ff0606"/></linearGradient><radialGradient id="l1s12" gradientUnits="userSpaceOnUse" cx="0" cy="0" r="64" gradientTransform="matrix(0.21875 0 0 0.21875 26 10)"><stop offset="0" stop-color="#ffd5d5"/><stop offset="0.4392" stop-color="#fbaaaa"/><stop offset="1" stop-color="#ee0606"/></radialGradient><linearGradient id="l2s2" gradientUnits="userSpaceOnUse" x1="-64" y1="0" x2="64" y2="0" gradientTransform="matrix(-0.043999672 0.16633797 -0.30210876 -0.079913616 53.093506 50.728516)"><stop offset="0" stop-color="#999999"/><stop offset="0.9961" stop-color="#6c6c6c"/></linearGradient><linearGradient id="l2s3" gradientUnits="userSpaceOnUse" x1="-64" y1="0" x2="64" y2="0" gradientTransform="matrix(0.15288067 0.14924049 -0.17463398 0.17889309 23.666138 42.518066)"><stop offset="0" stop-color="#cccccc"/><stop offset="1" stop-color="#a5a5a5"/></linearGradient><linearGradient id="l2s4" gradientUnits="userSpaceOnUse" x1="-64" y1="0" x2="64" y2="0" gradientTransform="matrix(0.080622673 0.16928101 -0.33856201 0.16124535 38.253906 30.423096)"><stop offset="0" stop-color="#e5e5e5"/><stop offset="1" stop-color="#cbcbcb"/></linearGradient><radialGradient id="l2s6" gradientUnits="userSpaceOnUse" cx="0" cy="0" r="64" gradientTransform="matrix(0.21889496 -0.12076807 0.12076807 0.21889496 23.130737 9.8599243)"><stop offset="0" stop-color="#e4e4e4"/><stop offset="1" stop-color="#212121"/></radialGradient><radialGradient id="l2s7" gradientUnits="userSpaceOnUse" cx="0" cy="0" r="64" gradientTransform="matrix(0.055352449 0.02902329 -0.02902329 0.055352449 36.188232 26.296265)" data-hvif-gradient="conic"><stop offset="0" stop-color="#010000"/><stop offset="0.4627" stop-color="#6c6c6c"/><stop offset="0.9961" stop-color="#010101"/></radialGradient><linearGradient id="l2s8" gradientUnits="userSpaceOnUse" x1="-64" y1="0" x2="64" y2="0" gradientTransform="matrix(0.15637398 -0.0013127998 0.0010493621 0.12499523 29.966553 10.033691)"><stop offset="0.0039" stop-color="#bebebe"/><stop offset="1" stop-color="#0b0b0b"/></linearGradient><radialGradient id="l2s9" gradientUnits="userSpaceOnUse" cx="0" cy="0" r="64" gradientTransform="matrix(0.0625 0 0 0.234375 26 25.5)"><stop offset="0" stop-color="#ffffff"/><stop offset="0.7843" stop-color="#868686"/><stop offset="1" stop-color="#414141"/></radialGradient><radialGradient id="l2s10" gradientUnits="userSpaceOnUse" cx="0" cy="0" r="64" gradientTransform="matrix(0.20691395 0 0 0.20691395 26.99939 9.9994507)"><stop offset="0" stop-color="#ffffff"/><stop offset="0.498" stop-color="#ff3300"/><stop offset="1" stop-color="#cc0000"/></radialGradient><linearGradient id="l2s11" gradientUnits="userSpaceOnUse" x1="-64" y1="0" x2="64" y2="0" gradientTransform="matrix(0.0625 0 0 0.0625 50 36)"><stop offset="0" stop-color="#ff5959"/><stop offset="0.6" stop-color="#b30404"/><stop offset="1" stop-color="#ff0606"/></linearGradient><radialGradient id="l2s12" gradientUnits="userSpaceOnUse" cx="0" cy="0" r="64" gradientTransform="matrix(0.21875 0 0 0.21875 26 10)"><stop offset="0" stop-color="#ffd5d5"/><stop offset="0.4392" stop-color="#fbaaaa"/><stop offset="1" stop-color="#ee0606"/></radialGradient></defs>
<g>
<path d="M42 61 L48 61 L52 57 L56 57 L62 51 L48 47 Z" fill="#010101" fill-opacity="0.3961"/>
<path d="M3 15 L13 41 L42 59 L60 12 L48 10 L44 12 L26 8 L24 13 L16 11 L15.9216 19.2059 Z" fill="none" stroke="#000000" stroke-width="4" stroke-linejoin="miter" stroke-linecap="butt" stroke-miterlimit="4" data-hvif-lod="0.3294 4"/>
<path d="M3 15 L13 41 L42 59 L60 12 L48 10 L44 12 L26 8 L24 13 L16 11 L15.9216 19.2059 Z" fill="none" stroke="#000000" stroke-width="6" stroke-linejoin="miter" stroke-linecap="butt" stroke-miterlimit="4" data-hvif-lod="0 0.3294"/>
<path d="M26 8 L14 41 L42 58 L60 12 L48 10 L44 12 Z" fill="url(#l0s3)"/>
<path d="M16 11 L16 41 L42 57 L49 22 Z" fill="url(#l0s2)"/>
<path d="M16 11 L49 22 L42 57 L52 20.3725 Z" fill="url(#l0s5)"/>
<path d="M3 15 L13 41 L42 59 L38 30 Z" fill="url(#l0s1)"/>
<path d="M3 15 L38 30 L42 59 L40.5 28 Z" fill="#3d3d5d"/>
</g>
<g transform="matrix(0.46666667 0 0 0.46666667 3 32.133333)" data-hvif-lod="0.3294 4">
<path d="M34 64 L38 64 L60 42 L56 40 L34 40 Z" fill="#010000" fill-opacity="0.4824"/>
<path d="M30 4 C35.598 4 40 8.402 40 14 C40 19.598 35.598 24 30 24 C24.402 24 20 19.598 20 14 C20 8.402 24.402 4 30 4 Z" fill="#010000" fill-opacity="0.4824" transform="matrix(1.1999969 0 0 0.69999695 12 41.199951)"/>
<path d="M2 42 L2 46 L34 62 L54 42 L54 38 L24 25 Z" fill="none" stroke="#010000" stroke-width="4" stroke-linejoin="miter" stroke-linecap="butt" stroke-miterlimit="4"/>
<path d="M34 56 L34 62 L54 42 L54 38 Z" fill="url(#l1s2)"/>
<path d="M34 56 L34 62 L2 46 L2 42 Z" fill="url(#l1s3)"/>
<path d="M2 42 L34 56 L41.9706 48.8235 C32 46 34 38 49.6765 36.1275 L24 25 Z" fill="url(#l1s4)"/>
<path d="M41.9706 48.8235 L54 38 L49.6765 36.1275 C34 38 32 46 41.9706 48.8235 Z" fill="#9b9b9b"/>
<path d="M30 4 C35.598 4 40 8.402 40 14 C40 19.598 35.598 24 30 24 C24.402 24 20 19.598 20 14 C20 8.402 24.402 4 30 4 Z" fill="none" stroke="#010000" stroke-width="4" stroke-linejoin="miter" stroke-linecap="butt" stroke-miterlimit="4" transform="matrix(1.1999969 0 0 0.89999771 -8 26.399902)"/>
<path d="M30 4 C35.598 4 40 8.402 40 14 C40 19.598 35.598 24 30 24 C24.402 24 20 19.598 20 14 C20 8.402 24.402 4 30 4 Z" fill="url(#l1s6)" transform="matrix(1.1999969 0 0 0.89999771 -8 26.399902)"/>
<path d="M30 4 C35.598 4 40 8.402 40 14 C40 19.598 35.598 24 30 24 C24.402 24 20 19.598 20 14 C20 8.402 24.402 4 30 4 Z" fill="none" stroke="url(#l1s8)" stroke-width="4" stroke-linejoin="miter" stroke-linecap="butt" stroke-miterlimit="4" transform="matrix(0.89999771 0 0 0.60833359 1 28.483276)"/>
<path d="M30 4 C35.598 4 40 8.402 40 14 C40 19.598 35.598 24 30 24 C24.402 24 20 19.598 20 14 C20 8.402 24.402 4 30 4 Z" fill="url(#l1s7)" transform="matrix(0.89999771 0 0 0.64999771 1 27.399902)"/>
<path d="M30 4 C35.598 4 40 8.402 40 14 C40 19.598 35.598 24 30 24 C24.402 24 20 19.598 20 14 C20 8.402 24.402 4 30 4 Z" fill="#010000" transform="matrix(0.39999962 0 0 0.29999924 16 34.799805)"/>
<path d="M28 41 C28.7353 41 29.4118 40.8431 30 40.5882 L30 23 L26 23 L26 40.5882 C26.5882 40.8431 27.2647 41 28 41 Z" fill="url(#l1s9)"/>
<path d="M30 4 C35.598 4 40 8.402 40 14 C40 19.598 35.598 24 30 24 C24.402 24 20 19.598 20 14 C20 8.402 24.402 4 30 4 Z" fill="none" stroke="#010000" stroke-width="4" stroke-linejoin="miter" stroke-linecap="butt" stroke-miterlimit="4" transform="matrix(1 0 0 1 -2 2)"/>
<path d="M30 4 C35.598 4 40 8.402 40 14 C40 19.598 35.598 24 30 24 C24.402 24 20 19.598 20 14 C20 8.402 24.402 4 30 4 Z" fill="url(#l1s10)" transform="matrix(1 0 0 1 -2 2)"/>
<path d="M52 36 C52 37 52 38 49 38 C46 38 46 37 46 36 C46 35 46 33 49 33 C52 33 52 35 52 36 Z" fill="none" stroke="#010000" stroke-width="4" stroke-linejoin="miter" stroke-linecap="butt" stroke-miterlimit="4" transform="matrix(1 0 0 1 -2 2)"/>
<path d="M52 36 C52 37 52 38 49 38 C46 38 46 37 46 36 C46 35 46 33 49 33 C52 33 52 35 52 36 Z" fill="url(#l1s11)" transform="matrix(1 0 0 1 -2 2)"/>
<path d="M30 4 C35.598 4 40 8.402 40 14 C40 19.598 35.598 24 30 24 C24.402 24 20 19.598 20 14 C20 8.402 24.402 4 30 4 Z" fill="url(#l1s12)" transform="matrix(0.29999924 0 0 0.19999981 38 33.199951)"/>
</g>
<g transform="matrix(0.7 0 0 0.7 0 19.2)" data-hvif-lod="0 0.3294">
<path d="M34 64 L38 64 L60 42 L56 40 L34 40 Z" fill="#010000" fill-opacity="0.4824"/>
<path d="M30 4 C35.598 4 40 8.402 40 14 C40 19.598 35.598 24 30 24 C24.402 24 20 19.598 20 14 C20 8.402 24.402 4 30 4 Z" fill="#010000" fill-opacity="0.4824" transform="matrix(1.1999969 0 0 0.69999695 12 41.199951)"/>
<path d="M2 42 L2 46 L34 62 L54 42 L54 38 L24 25 Z" fill="none" stroke="#010000" stroke-width="4" stroke-linejoin="miter" stroke-linecap="butt" stroke-miterlimit="4"/>
<path d="M34 56 L34 62 L54 42 L54 38 Z" fill="url(#l2s2)"/>
<path d="M34 56 L34 62 L2 46 L2 42 Z" fill="url(#l2s3)"/>
<path d="M2 42 L34 56 L41.9706 48.8235 C32 46 34 38 49.6765 36.1275 L24 25 Z" fill="url(#l2s4)"/>
<path d="M41.9706 48.8235 L54 38 L49.6765 36.1275 C34 38 32 46 41.9706 48.8235 Z" fill="#9b9b9b"/>
<path d="M30 4 C35.598 4 40 8.402 40 14 C40 19.598 35.598 24 30 24 C24.402 24 20 19.598 20 14 C20 8.402 24.402 4 30 4 Z" fill="none" stroke="#010000" stroke-width="4" stroke-linejoin="miter" stroke-linecap="butt" stroke-miterlimit="4" transform="matrix(1.1999969 0 0 0.89999771 -8 26.399902)"/>
<path d="M30 4 C35.598 4 40 8.402 40 14 C40 19.598 35.598 24 30 24 C24.402 24 20 19.598 20 14 C20 8.402 24.402 4 30 4 Z" fill="url(#l2s6)" transform="matrix(1.1999969 0 0 0.89999771 -8 26.399902)"/>
<path d="M30 4 C35.598 4 40 8.402 40 14 C40 19.598 35.598 24 30 24 C24.402 24 20 19.598 20 14 C20 8.402 24.402 4 30 4 Z" fill="none" stroke="url(#l2s8)" stroke-width="4" stroke-linejoin="miter" stroke-linecap="butt" stroke-miterlimit="4" transform="matrix(0.89999771 0 0 0.60833359 1 28.483276)"/>
<path d="M30 4 C35.598 4 40 8.402 40 14 C40 19.598 35.598 24 30 24 C24.402 24 20 19.598 20 14 C20 8.402 24.402 4 30 4 Z" fill="url(#l2s7)" transform="matrix(0.89999771 0 0 0.64999771 1 27.399902)"/>
<path d="M30 4 C35.598 4 40 8.402 40 14 C40 19.598 35.598 24 30 24 C24.402 24 20 19.598 20 14 C20 8.402 24.402 4 30 4 Z" fill="#010000" transform="matrix(0.39999962 0 0 0.29999924 16 34.799805)"/>
<path d="M28 41 C28.7353 41 29.4118 40.8431 30 40.5882 L30 23 L26 23 L26 40.5882 C26.5882 40.8431 27.2647 41 28 41 Z" fill="url(#l2s9)"/>
<path d="M30 4 C35.598 4 40 8.402 40 14 C40 19.598 35.598 24 30 24 C24.402 24 20 19.598 20 14 C20 8.402 24.402 4 30 4 Z" fill="none" stroke="#010000" stroke-width="4" stroke-linejoin="miter" stroke-linecap="butt" stroke-miterlimit="4" transform="matrix(1 0 0 1 -2 2)"/>
<path d="M30 4 C35.598 4 40 8.402 40 14 C40 19.598 35.598 24 30 24 C24.402 24 20 19.598 20 14 C20 8.402 24.402 4 30 4 Z" fill="url(#l2s10)" transform="matrix(1 0 0 1 -2 2)"/>
<path d="M52 36 C52 37 52 38 49 38 C46 38 46 37 46 36 C46 35 46 33 49 33 C52 33 52 35 52 36 Z" fill="none" stroke="#010000" stroke-width="4" stroke-linejoin="miter" stroke-linecap="butt" stroke-miterlimit="4" transform="matrix(1 0 0 1 -2 2)"/>
<path d="M52 36 C52 37 52 38 49 38 C46 38 46 37 46 36 C46 35 46 33 49 33 C52 33 52 35 52 36 Z" fill="url(#l2s11)" transform="matrix(1 0 0 1 -2 2)"/>
<path d="M30 4 C35.598 4 40 8.402 40 14 C40 19.598 35.598 24 30 24 C24.402 24 20 19.598 20 14 C20 8.402 24.402 4 30 4 Z" fill="url(#l2s12)" transform="matrix(0.29999924 0 0 0.19999981 38 33.199951)"/>
</g>
</svg>
